# xmcd
#
# Track frame offsets:
#	183
#	13638
#	29518
#	47043
#	64645
#	76790
#	89270
#	103238
#	116008
#	135660
#	150983
#	165903
#	180260
#	196955
#	215505
#	227013
#	239565
#	252690
#	265818
#	286340
#
# Disc length: 4021
#
# Revision: 1
# Processed by: cddbd v1.5.1PL0 Copyright (c) Steve Scherf et al.
# Submitted via: dBpowerAMP V4.0
# Normalized: r0:DSETVAR1,TDELIM( - )
#
DISCID=0b0fb314
DTITLE=Various Artist - That's Country
DYEAR=1900
DGENRE=Country
TTITLE0=Glen Campbell - Southern nights
TTITLE1=Willie Nelson - Always on my mind
TTITLE2=Linda Ronstadt - Blue Bayou
TTITLE3=James Taylor - Carolina on my mind
TTITLE4=Hank Williams - Your cheatin' heart
TTITLE5=Jim Reeves - I love you because
TTITLE6=Dolly Parton - I wil always love you
TTITLE7=Kenny Rogers - Ruby, don't take your love to town
TTITLE8=Marty Robbins - El Paso
TTITLE9=Joan Baez - The night they drove old Dixie down
TTITLE10=Tanya Tucker - Delta dawn
TTITLE11=Dr. Hook - If not you
TTITLE12=Johnny Cash - A boy named Sue
TTITLE13=Juice Newton - Angel of the morning
TTITLE14=Billy Jo Spears - Stand by your man
TTITLE15=Roy Orbison - Cryin'
TTITLE16=Crystal Gayle - Talkin' in your sleep
TTITLE17=Lynn Anderson - Rose garden
TTITLE18=The Band - The weight
TTITLE19=Billy Ray Cyrus - Achy breaky heart
EXTD=
EXTT0=
EXTT1=
EXTT2=
EXTT3=
EXTT4=
EXTT5=
EXTT6=
EXTT7=
EXTT8=
EXTT9=
EXTT10=
EXTT11=
EXTT12=
EXTT13=
EXTT14=
EXTT15=
EXTT16=
EXTT17=
EXTT18=
EXTT19=
PLAYORDER=
